<svg xmlns="http://www.w3.org/2000/svg" width="0" height="0" class="hidden" display = "none">
  <symbol fill="none" xmlns="http://www.w3.org/2000/svg" viewBox="0 0 20 18" id="burger">
    <rect width="20" height="2" fill="white"></rect>
    <rect y="8" width="20" height="2" fill="white"></rect>
    <rect y="16" width="10" height="2" fill="white"></rect>
  </symbol>
  <symbol fill="none" xmlns="http://www.w3.org/2000/svg" viewBox="0 0 25 25" id="search">
    <path d="M24.9113 22.8136L19.8536 18.3573C21.341 16.3763 22.1457 13.9543 22.1457 11.4068C22.1457 8.35737 20.9904 5.49807 18.9013 3.34219C16.8123 1.18631 14.0293 0 11.0728 0C8.11639 0 5.33342 1.19011 3.24434 3.34219C1.15157 5.49427 0 8.35737 0 11.4068C0 14.4524 1.15527 17.3193 3.24434 19.4714C5.33342 21.6273 8.1127 22.8136 11.0728 22.8136C13.5458 22.8136 15.8932 21.9847 17.8162 20.4562L22.8739 24.9086C22.902 24.9376 22.9354 24.9606 22.9721 24.9762C23.0088 24.9919 23.0482 25 23.088 25C23.1277 25 23.1671 24.9919 23.2038 24.9762C23.2406 24.9606 23.2739 24.9376 23.302 24.9086L24.9113 23.2546C24.9394 23.2257 24.9617 23.1913 24.9769 23.1535C24.9922 23.1156 25 23.0751 25 23.0341C25 22.9931 24.9922 22.9526 24.9769 22.9147C24.9617 22.8769 24.9394 22.8425 24.9113 22.8136ZM16.9193 17.4296C15.3543 19.0379 13.28 19.9238 11.0728 19.9238C8.86565 19.9238 6.79134 19.0379 5.22638 17.4296C3.66511 15.8174 2.80512 13.6805 2.80512 11.4068C2.80512 9.13303 3.66511 6.99236 5.22638 5.384C6.79134 3.77565 8.86565 2.88972 11.0728 2.88972C13.28 2.88972 15.358 3.77184 16.9193 5.384C18.4806 6.99616 19.3406 9.13303 19.3406 11.4068C19.3406 13.6805 18.4806 15.8212 16.9193 17.4296Z" fill="#BCBCBC"></path>
  </symbol>
  <symbol xmlns="http://www.w3.org/2000/svg" viewBox="0 0 30 30" id="fb">
    <path d="M15 0C6.74999 0 0 6.76205 0 15.0904C0 22.6205 5.48999 28.8705 12.66 30V19.4578H8.84999V15.0904H12.66V11.762C12.66 7.98193 14.895 5.90361 18.33 5.90361C19.965 5.90361 21.675 6.18976 21.675 6.18976V9.90964H19.785C17.925 9.90964 17.34 11.0693 17.34 12.259V15.0904H21.51L20.835 19.4578H17.34V30C20.8746 29.4395 24.0933 27.6288 26.4149 24.8947C28.7364 22.1606 30.008 18.6832 30 15.0904C30 6.76205 23.25 0 15 0Z" ></path>
  </symbol>
  <symbol fill="none" xmlns="http://www.w3.org/2000/svg" viewBox="0 0 14 14" id="mdi_calendar_gray">
    <path d="M11.6667 1.75004H11.0833V0.583374H9.91667V1.75004H4.08334V0.583374H2.91667V1.75004H2.33334C1.69167 1.75004 1.16667 2.27504 1.16667 2.91671V12.25C1.16667 12.8917 1.69167 13.4167 2.33334 13.4167H11.6667C12.3083 13.4167 12.8333 12.8917 12.8333 12.25V2.91671C12.8333 2.27504 12.3083 1.75004 11.6667 1.75004ZM11.6667 12.25H2.33334V4.66671H11.6667V12.25Z" fill="#999999"></path>
  </symbol>
  <symbol fill="none" xmlns="http://www.w3.org/2000/svg" viewBox="0 0 191 31" id="logo">
    <path d="M43 25V3.99999H48.55V11.8H56.65V3.99999H62.2V25H56.65V16.9H48.55V25H43Z" fill="white"></path>
    <path d="M65.4859 5.19999C65.4859 4.47999 65.7559 3.87999 66.2959 3.39999C66.8359 2.89999 67.5159 2.64999 68.3359 2.64999C69.1559 2.64999 69.8359 2.89999 70.3759 3.39999C70.9159 3.87999 71.1859 4.47999 71.1859 5.19999C71.1859 5.9 70.9159 6.5 70.3759 6.99999C69.8359 7.49999 69.1559 7.74999 68.3359 7.74999C67.5159 7.74999 66.8359 7.49999 66.2959 6.99999C65.7559 6.5 65.4859 5.9 65.4859 5.19999ZM65.7859 25V9.39999H70.8859V25H65.7859Z" fill="white"></path>
    <path d="M75.4541 22.63C74.1141 21.15 73.4441 19.24 73.4441 16.9C73.4441 14.56 74.1141 12.65 75.4541 11.17C76.7941 9.68999 78.4241 8.94999 80.3441 8.94999C81.7241 8.94999 82.9141 9.34999 83.9141 10.15C84.3741 10.51 84.7341 10.91 84.9941 11.35H85.2941V9.39999H90.3941V30.7H75.5441V26.65H85.2941V22.6H84.9941C84.7141 23.04 84.3541 23.42 83.9141 23.74C82.9341 24.48 81.7441 24.85 80.3441 24.85C78.4241 24.85 76.7941 24.11 75.4541 22.63ZM79.5941 14.26C78.9941 14.9 78.6941 15.78 78.6941 16.9C78.6941 18.02 78.9941 18.9 79.5941 19.54C80.1941 20.18 80.9941 20.5 81.9941 20.5C82.9941 20.5 83.7941 20.18 84.3941 19.54C84.9941 18.9 85.2941 18.02 85.2941 16.9C85.2941 15.78 84.9941 14.9 84.3941 14.26C83.7941 13.62 82.9941 13.3 81.9941 13.3C80.9941 13.3 80.1941 13.62 79.5941 14.26Z" fill="white"></path>
    <path d="M93.3801 25V3.99999H98.4801V11.5H98.7801C99.0601 11.02 99.4201 10.6 99.8601 10.24C100.88 9.38 102.07 8.94999 103.43 8.94999C105.27 8.94999 106.7 9.50999 107.72 10.63C108.76 11.73 109.28 13.32 109.28 15.4V25H104.18V16.15C104.18 15.25 103.94 14.55 103.46 14.05C102.98 13.55 102.32 13.3 101.48 13.3C100.62 13.3 99.9001 13.62 99.3201 14.26C98.7601 14.88 98.4801 15.71 98.4801 16.75V25H93.3801Z" fill="white"></path>
    <path d="M120.538 30.7V9.39999H125.638V11.5H125.938C126.218 11.04 126.598 10.62 127.078 10.24C128.178 9.38 129.348 8.94999 130.588 8.94999C132.508 8.94999 134.138 9.71 135.478 11.23C136.818 12.73 137.488 14.72 137.488 17.2C137.488 19.68 136.818 21.68 135.478 23.2C134.138 24.7 132.508 25.45 130.588 25.45C129.328 25.45 128.158 25.03 127.078 24.19C126.598 23.81 126.218 23.38 125.938 22.9H125.638V30.7H120.538ZM126.538 14.32C125.938 15 125.638 15.96 125.638 17.2C125.638 18.44 125.938 19.4 126.538 20.08C127.138 20.76 127.938 21.1 128.938 21.1C129.938 21.1 130.738 20.76 131.338 20.08C131.938 19.4 132.238 18.44 132.238 17.2C132.238 15.96 131.938 15 131.338 14.32C130.738 13.64 129.938 13.3 128.938 13.3C127.938 13.3 127.138 13.64 126.538 14.32Z" fill="white"></path>
    <path d="M141.284 23.2C139.944 21.68 139.274 19.68 139.274 17.2C139.274 14.72 139.944 12.73 141.284 11.23C142.624 9.71 144.254 8.94999 146.174 8.94999C147.414 8.94999 148.584 9.38 149.684 10.24C150.144 10.62 150.524 11.04 150.824 11.5H151.124V9.39999H156.224V25H151.124V22.9H150.824C150.544 23.38 150.164 23.81 149.684 24.19C148.604 25.03 147.434 25.45 146.174 25.45C144.254 25.45 142.624 24.7 141.284 23.2ZM145.424 14.32C144.824 15 144.524 15.96 144.524 17.2C144.524 18.44 144.824 19.4 145.424 20.08C146.024 20.76 146.824 21.1 147.824 21.1C148.824 21.1 149.624 20.76 150.224 20.08C150.824 19.4 151.124 18.44 151.124 17.2C151.124 15.96 150.824 15 150.224 14.32C149.624 13.64 148.824 13.3 147.824 13.3C146.824 13.3 146.024 13.64 145.424 14.32Z" fill="white"></path>
    <path d="M158.31 19.9H163.41C163.49 20.2 163.66 20.48 163.92 20.74C164.46 21.28 165.24 21.55 166.26 21.55C167.66 21.55 168.36 21.2 168.36 20.5C168.36 20.18 168.16 19.93 167.76 19.75C167.36 19.55 166.76 19.35 165.96 19.15C165.3 18.99 164.87 18.89 164.67 18.85C164.47 18.81 164.05 18.7 163.41 18.52C162.77 18.32 162.31 18.15 162.03 18.01C161.77 17.85 161.4 17.63 160.92 17.35C160.46 17.05 160.12 16.75 159.9 16.45C159.7 16.13 159.51 15.74 159.33 15.28C159.15 14.8 159.06 14.29 159.06 13.75C159.06 12.43 159.65 11.3 160.83 10.36C162.01 9.41999 163.67 8.94999 165.81 8.94999C168.49 8.94999 170.61 9.82999 172.17 11.59C172.79 12.35 173.22 13.22 173.46 14.2H168.51C168.39 13.88 168.25 13.63 168.09 13.45C167.63 12.95 166.97 12.7 166.11 12.7C164.91 12.7 164.31 13.05 164.31 13.75C164.31 14.09 164.51 14.35 164.91 14.53C165.31 14.71 165.92 14.88 166.74 15.04C168.8 15.52 170.19 15.94 170.91 16.3C172.71 17.18 173.61 18.53 173.61 20.35C173.61 21.79 172.97 23 171.69 23.98C170.43 24.96 168.62 25.45 166.26 25.45C163.36 25.45 161.15 24.53 159.63 22.69C158.95 21.87 158.51 20.94 158.31 19.9Z" fill="white"></path>
    <path d="M174.951 19.9H180.051C180.131 20.2 180.301 20.48 180.561 20.74C181.101 21.28 181.881 21.55 182.901 21.55C184.301 21.55 185.001 21.2 185.001 20.5C185.001 20.18 184.801 19.93 184.401 19.75C184.001 19.55 183.401 19.35 182.601 19.15C181.941 18.99 181.511 18.89 181.311 18.85C181.111 18.81 180.691 18.7 180.051 18.52C179.411 18.32 178.951 18.15 178.671 18.01C178.411 17.85 178.041 17.63 177.561 17.35C177.101 17.05 176.761 16.75 176.541 16.45C176.341 16.13 176.151 15.74 175.971 15.28C175.791 14.8 175.701 14.29 175.701 13.75C175.701 12.43 176.291 11.3 177.471 10.36C178.651 9.41999 180.311 8.94999 182.451 8.94999C185.131 8.94999 187.251 9.82999 188.811 11.59C189.431 12.35 189.861 13.22 190.101 14.2H185.151C185.031 13.88 184.891 13.63 184.731 13.45C184.271 12.95 183.611 12.7 182.751 12.7C181.551 12.7 180.951 13.05 180.951 13.75C180.951 14.09 181.151 14.35 181.551 14.53C181.951 14.71 182.561 14.88 183.381 15.04C185.441 15.52 186.831 15.94 187.551 16.3C189.351 17.18 190.251 18.53 190.251 20.35C190.251 21.79 189.611 23 188.331 23.98C187.071 24.96 185.261 25.45 182.901 25.45C180.001 25.45 177.791 24.53 176.271 22.69C175.591 21.87 175.151 20.94 174.951 19.9Z" fill="white"></path>
    <path fill-rule="evenodd" clip-rule="evenodd" d="M6 6V24H24L6 6ZM0 0V30H30V0H0Z" fill="#FF6E30"></path>
  </symbol>
  <symbol fill="none" xmlns="http://www.w3.org/2000/svg" viewBox="0 0 14 14" id="mdi_calendar_today">
    <path d="M11.6667 1.75004H11.0833V0.583374H9.91667V1.75004H4.08334V0.583374H2.91667V1.75004H2.33334C1.69167 1.75004 1.16667 2.27504 1.16667 2.91671V12.25C1.16667 12.8917 1.69167 13.4167 2.33334 13.4167H11.6667C12.3083 13.4167 12.8333 12.8917 12.8333 12.25V2.91671C12.8333 2.27504 12.3083 1.75004 11.6667 1.75004ZM11.6667 12.25H2.33334V4.66671H11.6667V12.25Z" fill="white"></path>
  </symbol>
  <symbol xmlns="http://www.w3.org/2000/svg" viewBox="0 0 22 22" id="mdi_call">
    <g opacity="0.7">
      <path d="M18.3425 14.0983C17.215 14.0983 16.1242 13.915 15.1067 13.585C14.7858 13.475 14.4283 13.5575 14.1808 13.805L12.7417 15.6108C10.1475 14.3733 7.71833 12.0358 6.42583 9.35L8.21333 7.82833C8.46083 7.57167 8.53417 7.21417 8.43333 6.89333C8.09417 5.87583 7.92 4.785 7.92 3.6575C7.92 3.1625 7.5075 2.75 7.0125 2.75H3.84083C3.34583 2.75 2.75 2.97 2.75 3.6575C2.75 12.1733 9.83583 19.25 18.3425 19.25C18.9933 19.25 19.25 18.6725 19.25 18.1683V15.0058C19.25 14.5108 18.8375 14.0983 18.3425 14.0983Z"></path>
    </g>
  </symbol>
  <symbol xmlns="http://www.w3.org/2000/svg" viewBox="0 0 30 30" id="social">
    <path d="M12.1289 15.0001C12.1289 16.5858 13.4143 17.8712 15 17.8712C16.5857 17.8712 17.8711 16.5858 17.8711 15.0001C17.8711 13.4144 16.5857 12.129 15 12.129C13.4143 12.129 12.1289 13.4144 12.1289 15.0001Z"></path>
    <path d="M8.28558 9.92003C8.4236 9.54604 8.64378 9.20752 8.92989 8.92966C9.20775 8.64355 9.54604 8.42337 9.92026 8.28535C10.2238 8.16748 10.6797 8.02718 11.5195 7.98895C12.4279 7.94753 12.7003 7.9386 15.0001 7.9386C17.3001 7.9386 17.5725 7.9473 18.4807 7.98872C19.3204 8.02718 19.7766 8.16748 20.0799 8.28535C20.4541 8.42337 20.7926 8.64355 21.0702 8.92966C21.3563 9.20752 21.5765 9.54581 21.7148 9.92003C21.8326 10.2235 21.9729 10.6797 22.0112 11.5195C22.0526 12.4277 22.0615 12.7 22.0615 15.0001C22.0615 17.2999 22.0526 17.5722 22.0112 18.4807C21.9729 19.3204 21.8326 19.7764 21.7148 20.0799C21.5765 20.4541 21.3566 20.7924 21.0705 21.0702C20.7926 21.3563 20.4543 21.5765 20.0801 21.7145C19.7766 21.8326 19.3204 21.9729 18.4807 22.0112C17.5725 22.0526 17.3003 22.0613 15.0003 22.0613C12.7 22.0613 12.4277 22.0526 11.5197 22.0112C10.6799 21.9729 10.2238 21.8326 9.92026 21.7145C9.16907 21.4248 8.57535 20.8311 8.28558 20.0799C8.16771 19.7764 8.0274 19.3204 7.98895 18.4807C7.94753 17.5722 7.93883 17.2999 7.93883 15.0001C7.93883 12.7 7.94753 12.4277 7.98895 11.5195C8.02718 10.6797 8.16748 10.2235 8.28558 9.92003ZM15.0001 19.4227C17.4429 19.4227 19.4232 17.4427 19.4232 14.9998C19.4232 12.557 17.4429 10.5769 15.0001 10.5769C12.5574 10.5769 10.5771 12.557 10.5771 14.9998C10.5771 17.4427 12.5574 19.4227 15.0001 19.4227ZM10.4023 11.4357C10.9731 11.4357 11.4359 10.9729 11.4359 10.4021C11.4359 9.83122 10.9731 9.36842 10.4023 9.36842C9.83145 9.36842 9.36865 9.83122 9.36865 10.4021C9.36888 10.9729 9.83145 11.4357 10.4023 11.4357Z"></path>
    <path d="M15 0C23.283 0 30 6.717 30 15C30 23.283 23.283 30 15 30C6.717 30 0 23.283 0 15C0 6.717 6.717 0 15 0ZM6.43867 18.5511C6.48033 19.468 6.62613 20.094 6.83899 20.6419C7.28645 21.7989 8.20107 22.7135 9.35806 23.161C9.90578 23.3739 10.532 23.5194 11.4487 23.5613C12.3672 23.6032 12.6606 23.6133 14.9998 23.6133C17.3392 23.6133 17.6324 23.6032 18.5511 23.5613C19.4678 23.5194 20.094 23.3739 20.6417 23.161C21.2167 22.9447 21.7371 22.6057 22.1674 22.1674C22.6055 21.7374 22.9445 21.2167 23.1608 20.6419C23.3736 20.0942 23.5194 19.468 23.5611 18.5513C23.6034 17.6326 23.6133 17.3392 23.6133 15C23.6133 12.6608 23.6034 12.3674 23.5613 11.4489C23.5197 10.532 23.3741 9.90601 23.1612 9.35806C22.9449 8.78334 22.6057 8.26263 22.1674 7.83257C21.7374 7.39426 21.2167 7.05528 20.6419 6.83899C20.094 6.62613 19.468 6.48056 18.5511 6.43867C17.6326 6.39679 17.3392 6.38672 15 6.38672C12.6608 6.38672 12.3674 6.39679 11.4489 6.4389C10.532 6.48056 9.90601 6.62613 9.35806 6.83876C8.78334 7.05505 8.26263 7.39426 7.83234 7.83257C7.39426 8.26286 7.05505 8.78334 6.83899 9.35806C6.6259 9.90601 6.48033 10.532 6.43845 11.4489C6.39656 12.3674 6.38672 12.6608 6.38672 15C6.38672 17.3392 6.39656 17.6326 6.43867 18.5511Z"></path>
  </symbol>
  <symbol xmlns="http://www.w3.org/2000/svg" viewBox="0 0 30 30" id="vk">
    <path d="M15 0C6.71601 0 0 6.7157 0 15C0 23.2843 6.71601 30 15 30C23.284 30 30 23.2843 30 15C30 6.7157 23.284 0 15 0ZM22.6088 16.6223C23.3079 17.3052 24.0476 17.9478 24.6752 18.7013C24.9532 19.0346 25.2153 19.3792 25.4148 19.7669C25.6996 20.3196 25.4425 20.9257 24.9477 20.9586L21.8747 20.958C21.081 21.0236 20.4494 20.7035 19.9169 20.1609C19.4919 19.7285 19.0975 19.2666 18.6881 18.8194C18.5208 18.6359 18.3447 18.4631 18.1347 18.3272C17.7158 18.0546 17.3518 18.1381 17.1118 18.5758C16.8672 19.0211 16.8114 19.5146 16.788 20.0102C16.7546 20.7348 16.5361 20.9242 15.809 20.9583C14.2554 21.031 12.7814 20.7953 11.4114 20.0121C10.2028 19.3212 9.26731 18.3462 8.45217 17.2423C6.86486 15.0902 5.64921 12.7283 4.55693 10.2985C4.3111 9.7513 4.49095 9.45852 5.09463 9.44716C6.0976 9.42783 7.10056 9.43028 8.10353 9.44624C8.51171 9.45268 8.78179 9.68624 8.93862 10.0714C9.48061 11.4049 10.1451 12.6737 10.9777 13.8503C11.1996 14.1637 11.4261 14.4761 11.7486 14.6974C12.1047 14.9417 12.376 14.861 12.5438 14.4635C12.6513 14.2109 12.6976 13.9409 12.7209 13.6702C12.8007 12.743 12.8102 11.8162 12.6721 10.8927C12.5862 10.3148 12.2612 9.94158 11.6851 9.83233C11.3917 9.77678 11.4347 9.66813 11.5774 9.50056C11.8251 9.21084 12.0571 9.03161 12.5208 9.03161L15.9928 9.031C16.5401 9.13841 16.6628 9.38394 16.7371 9.93514L16.7402 13.7936C16.7337 14.0069 16.8473 14.6391 17.2303 14.7787C17.5372 14.88 17.7397 14.6339 17.9233 14.4396C18.7559 13.556 19.3492 12.5131 19.8804 11.4338C20.1149 10.9577 20.3171 10.4652 20.5136 9.97166C20.6596 9.60675 20.8868 9.42721 21.2986 9.43335L24.642 9.43734C24.7406 9.43734 24.8406 9.43826 24.9382 9.45514C25.5017 9.55151 25.6561 9.79396 25.4817 10.3436C25.2074 11.2073 24.6743 11.9266 24.1531 12.6479C23.5946 13.4201 22.9989 14.1652 22.4458 14.9408C21.9376 15.6497 21.9778 16.0066 22.6088 16.6223Z"></path>
  </symbol>
  <symbol fill="none" xmlns="http://www.w3.org/2000/svg" viewBox="0 0 20 20" id="close">
    <circle cx="10" cy="10" r="10" fill="#666666"></circle>
    <rect x="6.20712" y="5.5" width="12" height="1" transform="rotate(45 6.20712 5.5)" fill="white"></rect>
    <rect x="5.5914" y="13.9854" width="12" height="1" transform="rotate(-45 5.5914 13.9854)" fill="white"></rect>
  </symbol>
</svg>
